<svg viewBox="0 0 120 140" xmlns="http://www.w3.org/2000/svg" aria-hidden="true">
  <defs>
    <linearGradient id="orbBody" x1="18%" y1="0%" x2="82%" y2="100%">
      <stop offset="0%" stop-color="#8b5cf6"/>
      <stop offset="42%" stop-color="#3b82f6"/>
      <stop offset="100%" stop-color="#34f5a8"/>
    </linearGradient>
    <linearGradient id="orbShine" x1="0%" y1="0%" x2="100%" y2="100%">
      <stop offset="0%" stop-color="#ffffff" stop-opacity="0.62"/>
      <stop offset="100%" stop-color="#ffffff" stop-opacity="0"/>
    </linearGradient>
    <linearGradient id="groundGlow" x1="0%" y1="0%" x2="0%" y2="100%">
      <stop offset="0%" stop-color="#34f5a8" stop-opacity="0.42"/>
      <stop offset="100%" stop-color="#8b5cf6" stop-opacity="0"/>
    </linearGradient>
    <filter id="softGlow" x="-30%" y="-30%" width="160%" height="160%">
      <feGaussianBlur stdDeviation="2.5" result="blur"/>
      <feMerge>
        <feMergeNode in="blur"/>
        <feMergeNode in="SourceGraphic"/>
      </feMerge>
    </filter>
  </defs>

  <!-- orbit -->
  <ellipse cx="60" cy="68" rx="47" ry="14" fill="none" stroke="rgba(52,245,168,0.24)" stroke-width="1.2" transform="rotate(-16 60 68)"/>
  <ellipse cx="60" cy="68" rx="47" ry="14" fill="none" stroke="rgba(139,92,246,0.2)" stroke-width="1" transform="rotate(22 60 68)"/>

  <!-- mini sport orbs -->
  <g>
    <circle cx="20" cy="54" r="10" fill="#101522" stroke="rgba(255,140,80,0.5)" stroke-width="1"/>
    <ellipse cx="20" cy="54" rx="5.5" ry="3.2" fill="#8b4513" transform="rotate(-25 20 54)"/>
    <path d="M16 51 L24 57" stroke="#f4f6fa" stroke-width="1" opacity="0.55"/>

    <circle cx="100" cy="46" r="9" fill="#101522" stroke="rgba(255,160,60,0.5)" stroke-width="1"/>
    <circle cx="100" cy="46" r="5" fill="#e67e22"/>
    <path d="M95 46 H105 M100 41 V51" stroke="#1a1208" stroke-width="0.8" opacity="0.45"/>

    <circle cx="102" cy="82" r="8" fill="#101522" stroke="rgba(80,180,255,0.5)" stroke-width="1"/>
    <circle cx="102" cy="82" r="4" fill="#111"/>
  </g>

  <!-- shadow -->
  <ellipse cx="60" cy="124" rx="27" ry="6" fill="url(#groundGlow)"/>

  <!-- legs -->
  <path d="M49 98 C47 108 45 114 43 118" stroke="#1f2433" stroke-width="5" stroke-linecap="round" fill="none"/>
  <path d="M71 98 C73 108 75 114 77 118" stroke="#1f2433" stroke-width="5" stroke-linecap="round" fill="none"/>
  <ellipse cx="43" cy="119" rx="7" ry="3.8" fill="#121826"/>
  <ellipse cx="77" cy="119" rx="7" ry="3.8" fill="#121826"/>
  <path d="M40 118 H46 M74 118 H80" stroke="#34f5a8" stroke-width="2" stroke-linecap="round"/>

  <!-- left arm -->
  <path d="M33 74 C22 70 16 58 14 48" stroke="#1f2433" stroke-width="4.5" stroke-linecap="round" fill="none"/>
  <circle cx="13" cy="47" r="5.5" fill="#34f5a8" filter="url(#softGlow)"/>

  <!-- body -->
  <circle cx="60" cy="68" r="34" fill="url(#orbBody)" stroke="rgba(255,255,255,0.2)" stroke-width="1.2"/>
  <ellipse cx="47" cy="51" rx="15" ry="11" fill="url(#orbShine)" transform="rotate(-22 47 51)"/>

  <!-- visor -->
  <path d="M38 62 C42 56 52 54 60 54 C68 54 78 56 82 62 C80 70 70 74 60 74 C50 74 40 70 38 62 Z" fill="#0a0e18" opacity="0.72"/>
  <path d="M40 63 C44 58 52 56 60 56 C68 56 76 58 80 63" stroke="rgba(52,245,168,0.35)" stroke-width="1" fill="none"/>

  <!-- eyes -->
  <circle cx="51" cy="64" r="3.2" fill="#34f5a8"/>
  <circle cx="52" cy="63" r="1.1" fill="#fff"/>
  <path d="M67 64 H74" stroke="#34f5a8" stroke-width="2.4" stroke-linecap="round"/>

  <!-- grin -->
  <path d="M53 78 Q60 84 68 77" stroke="#34f5a8" stroke-width="2.2" stroke-linecap="round" fill="none"/>

  <!-- #1 tag -->
  <g transform="translate(60 33)">
    <rect x="-15" y="-7" width="30" height="14" rx="7" fill="#101522" stroke="#34f5a8" stroke-width="1.1"/>
    <text x="0" y="4" text-anchor="middle" font-family="system-ui,sans-serif" font-size="9" font-weight="800" fill="#34f5a8">#1</text>
  </g>

  <!-- right arm + card -->
  <path d="M87 75 C97 72 105 64 109 55" stroke="#1f2433" stroke-width="4.5" stroke-linecap="round" fill="none"/>
  <g transform="translate(95 40) rotate(14)">
    <rect width="24" height="30" rx="4" fill="#101522" stroke="rgba(255,255,255,0.14)" stroke-width="1"/>
    <rect x="3" y="4" width="18" height="4" rx="2" fill="rgba(52,245,168,0.38)"/>
    <rect x="3" y="11" width="14" height="3" rx="1.5" fill="rgba(255,255,255,0.08)"/>
    <rect x="3" y="17" width="16" height="3" rx="1.5" fill="rgba(255,255,255,0.08)"/>
    <rect x="3" y="23" width="11" height="3" rx="1.5" fill="rgba(255,255,255,0.08)"/>
  </g>

  <!-- sparks -->
  <path d="M26 32 L28 26 L30 32 L36 34 L30 36 L28 42 L26 36 L20 34 Z" fill="#34f5a8" opacity="0.8"/>
  <path d="M90 98 L91.5 94 L93 98 L97 99.5 L93 101 L91.5 105 L90 101 L86 99.5 Z" fill="#8b5cf6" opacity="0.85"/>
</svg>
